# xmcd
#
# Track frame offsets:
#	150
#	21934
#	64024
#	83359
#	103915
#	121812
#	151550
#	171265
#	190215
#	210119
#	234997
#	249003
#	265807
#	292313
#	310445
#	344859
#
# Disc length: 4801 seconds
#
# Revision: 0
# Processed by: cddbd v1.5.2PL0 Copyright (c) Steve Scherf et al.
# Submitted via: EZCDAudioConverter 2.1.7.1
#
DISCID=d712bf10
DTITLE=Jah Wobble - Redux 2/6
DYEAR=1900
DGENRE=
TTITLE0=Jah Wobble, Jaki Liebezeit, Holger Czukay  - How Much Are They?
TTITLE1=Jah Wobble, The Edge, Holger Czukay - Hold Onto Your Dreams
TTITLE2=Jah Wobble - Blueberry Hill
TTITLE3=Jah Wobble's Invaders Of The Heart - Invaders Of The Heart [Mix Two]
TTITLE4=Jah Wobble With Animal - A Long, Long Way
TTITLE5=Jah Wobble and Ollie Marland - Love Mystery
TTITLE6=Jah Wobble - No Second Chances
TTITLE7=Jah Wobble - Blow Out [Remix]
TTITLE8=Jah Wobble and Ollie Marland - The Beast Inside
TTITLE9=Jah Wobble and Ollie Marland - Despike
TTITLE10=Jah Wobble - Fading
TTITLE11=Jah Wobble's Invaders Of The Heart - A13
TTITLE12=Jah Wobble, Ollie Marland, Polly Eltes - Voodoo
TTITLE13=Jah Wobble - Enough
TTITLE14=Jah Wobble - Sea-Side Special
TTITLE15=Jah Wobble - Island Paradise
EXTD=
EXTT0=
EXTT1=
EXTT2=
EXTT3=
EXTT4=
EXTT5=
EXTT6=
EXTT7=
EXTT8=
EXTT9=
EXTT10=
EXTT11=
EXTT12=
EXTT13=
EXTT14=
EXTT15=
PLAYORDER=
